<svg width="21" height="22" viewBox="0 0 21 22" fill="none" xmlns="http://www.w3.org/2000/svg">
<path fill-rule="evenodd" clip-rule="evenodd" d="M5.26753 2.20416L1.94169 4.9775C1.48669 5.35666 0.804193 5.3025 0.425027 4.83666C0.0350266 4.38166 0.100027 3.69916 0.555027 3.30916L3.89169 0.535829C4.34669 0.156663 5.02919 0.210829 5.40836 0.676663C5.79836 1.13166 5.73336 1.81416 5.26753 2.20416ZM20.445 3.30916L17.1084 0.535829C16.6534 0.156663 15.9709 0.210829 15.5809 0.676663C15.2017 1.13166 15.2667 1.81416 15.7217 2.20416L19.0475 4.9775C19.5025 5.35666 20.185 5.3025 20.575 4.83666C20.965 4.38166 20.9 3.69916 20.445 3.30916ZM14.6925 14.4025L11.0417 12.2358V7.32833C11.0417 6.895 10.695 6.54833 10.2617 6.54833H10.1967C9.76336 6.54833 9.41669 6.895 9.41669 7.32833V12.4417C9.41669 12.8208 9.61169 13.1783 9.94753 13.3733L13.9017 15.7458C14.27 15.9625 14.7467 15.8542 14.9634 15.4858C15.1909 15.1067 15.0717 14.6192 14.6925 14.4025ZM10.5 2.215C5.11586 2.215 0.750026 6.58083 0.750026 11.965C0.750026 17.3492 5.11586 21.715 10.5 21.715C15.8842 21.715 20.25 17.3492 20.25 11.965C20.25 6.58083 15.8842 2.215 10.5 2.215ZM2.91669 11.965C2.91669 16.1467 6.31836 19.5483 10.5 19.5483C14.6817 19.5483 18.0834 16.1467 18.0834 11.965C18.0834 7.78333 14.6817 4.38166 10.5 4.38166C6.31836 4.38166 2.91669 7.78333 2.91669 11.965Z" fill="url(#paint0_linear_7_54888)"/>
<defs>
<linearGradient id="paint0_linear_7_54888" x1="0.168945" y1="0.285156" x2="22.4564" y2="2.13517" gradientUnits="userSpaceOnUse">
<stop stop-color="#296BBD"/>
<stop offset="1" stop-color="#AC85FF"/>
</linearGradient>
</defs>
</svg>
