<svg
  width="21"
  height="19"
  viewBox="0 0 21 19"
  fill="none"
  xmlns="http://www.w3.org/2000/svg"
>
<path
    d="M9.73632 16.6603L9.7356 16.6596C7.15054 14.3155 5.0454 12.4057 3.58051 10.6147C2.12135 8.83074 1.34973 7.22576 1.34973 5.5C1.34973 2.69614 3.54587 0.5 6.34973 0.5C7.93834 0.5 9.47085 1.24197 10.4691 2.41417L10.8497 2.8612L11.2304 2.41417C12.2286 1.24197 13.7611 0.5 15.3497 0.5C18.1536 0.5 20.3497 2.69614 20.3497 5.5C20.3497 7.22577 19.5781 8.83077 18.1188 10.6161C16.6562 12.4055 14.5556 14.3144 11.9762 16.6584L11.9645 16.669L11.9635 16.67L10.851 17.675L9.73632 16.6603Z"
    stroke="#667085"
  />
</svg>
