<svg
  width="16"
  height="13"
  viewBox="0 0 16 13"
  fill="none"
  xmlns="http://www.w3.org/2000/svg"
>
<path
    d="M4.86206 0.16156C2.52145 0.16156 0.52737 1.91168 0.52737 4.18465C0.52737 5.75267 1.26161 7.0728 2.23472 8.16636C3.20449 9.25616 4.45564 10.1709 5.58673 10.9365L7.53827 12.2575C7.752 12.4022 8.03226 12.4022 8.24598 12.2575L10.1975 10.9365C11.3286 10.1709 12.5798 9.25616 13.5495 8.16636C14.5226 7.0728 15.2569 5.75267 15.2569 4.18465C15.2569 1.91168 13.2628 0.16156 10.9222 0.16156C9.71566 0.16156 8.65399 0.72729 7.89213 1.4593C7.13027 0.72729 6.06859 0.16156 4.86206 0.16156Z"
    fill="#FD5B74"
  />
</svg>
