<svg width="108" height="44" viewBox="0 0 108 44" fill="none" xmlns="http://www.w3.org/2000/svg">
<path d="M9.53125 18.2755C9.45549 17.6032 9.14299 17.0823 8.59375 16.713C8.04451 16.339 7.35322 16.1519 6.51989 16.1519C5.9233 16.1519 5.4072 16.2466 4.97159 16.436C4.53598 16.6207 4.19744 16.8764 3.95597 17.2031C3.71922 17.525 3.60085 17.892 3.60085 18.3039C3.60085 18.6496 3.68134 18.9479 3.84233 19.1988C4.00805 19.4497 4.22349 19.6605 4.48864 19.8309C4.75852 19.9966 5.04735 20.1363 5.35511 20.2499C5.66288 20.3588 5.95881 20.4488 6.2429 20.5198L7.66335 20.8891C8.12737 21.0028 8.60322 21.1567 9.09091 21.3508C9.5786 21.5449 10.0308 21.8006 10.4474 22.1178C10.8641 22.4351 11.2003 22.8281 11.456 23.2968C11.7164 23.7656 11.8466 24.3266 11.8466 24.9801C11.8466 25.8039 11.6335 26.5355 11.2074 27.1747C10.786 27.8139 10.1728 28.3181 9.3679 28.6874C8.56771 29.0568 7.59943 29.2414 6.46307 29.2414C5.37405 29.2414 4.43182 29.0686 3.63636 28.723C2.84091 28.3773 2.21828 27.8872 1.76847 27.2528C1.31866 26.6136 1.07008 25.856 1.02273 24.9801H3.22443C3.26705 25.5056 3.4375 25.9436 3.7358 26.294C4.03883 26.6396 4.42472 26.8977 4.89347 27.0681C5.36695 27.2338 5.88542 27.3167 6.44886 27.3167C7.06913 27.3167 7.62074 27.2196 8.10369 27.0255C8.59138 26.8266 8.97491 26.552 9.25426 26.2016C9.53362 25.8465 9.6733 25.4322 9.6733 24.9587C9.6733 24.5279 9.55019 24.1751 9.30398 23.9005C9.0625 23.6259 8.73343 23.3986 8.31676 23.2187C7.90483 23.0388 7.43845 22.8801 6.91761 22.7428L5.19886 22.2741C4.03409 21.9569 3.1108 21.4905 2.42898 20.8749C1.75189 20.2594 1.41335 19.445 1.41335 18.4318C1.41335 17.5937 1.64063 16.8622 2.09517 16.2372C2.54972 15.6122 3.16525 15.1268 3.94176 14.7812C4.71828 14.4308 5.59422 14.2556 6.5696 14.2556C7.55445 14.2556 8.4233 14.4284 9.17614 14.7741C9.93371 15.1197 10.5303 15.5956 10.9659 16.2016C11.4015 16.803 11.6288 17.4943 11.6477 18.2755H9.53125ZM19.391 18.0908V19.7954H13.4322V18.0908H19.391ZM15.0302 15.4772H17.1538V25.7968C17.1538 26.2087 17.2153 26.5189 17.3384 26.7272C17.4615 26.9308 17.6201 27.0705 17.8143 27.1462C18.0131 27.2173 18.2286 27.2528 18.4606 27.2528C18.631 27.2528 18.7802 27.2409 18.908 27.2173C19.0359 27.1936 19.1353 27.1747 19.2063 27.1605L19.5898 28.9147C19.4667 28.9621 19.2915 29.0094 19.0643 29.0568C18.837 29.1088 18.5529 29.1372 18.212 29.142C17.6533 29.1515 17.1325 29.052 16.6495 28.8437C16.1665 28.6354 15.7759 28.3134 15.4776 27.8778C15.1793 27.4422 15.0302 26.8953 15.0302 26.2372V15.4772ZM24.9148 29.2414C24.2235 29.2414 23.5985 29.1136 23.0398 28.8579C22.4811 28.5975 22.0384 28.2211 21.7116 27.7286C21.3897 27.2362 21.2287 26.6325 21.2287 25.9176C21.2287 25.302 21.3471 24.7954 21.5838 24.3977C21.8205 23.9999 22.1402 23.6851 22.5426 23.4531C22.9451 23.2211 23.3949 23.0459 23.892 22.9275C24.3892 22.8091 24.8958 22.7192 25.4119 22.6576C26.0653 22.5819 26.5956 22.5203 27.0028 22.473C27.41 22.4209 27.706 22.338 27.8906 22.2244C28.0753 22.1107 28.1676 21.9261 28.1676 21.6704V21.6207C28.1676 21.0004 27.9924 20.5198 27.642 20.1789C27.2964 19.838 26.7803 19.6676 26.0938 19.6676C25.3788 19.6676 24.8153 19.8262 24.4034 20.1434C23.9962 20.4559 23.7145 20.8039 23.5582 21.1874L21.5625 20.7329C21.7992 20.07 22.1449 19.535 22.5994 19.1278C23.0587 18.7158 23.5866 18.4176 24.1832 18.2329C24.7798 18.0435 25.4072 17.9488 26.0653 17.9488C26.5009 17.9488 26.9626 18.0009 27.4503 18.1051C27.9427 18.2045 28.402 18.3891 28.8281 18.659C29.259 18.9289 29.6117 19.3148 29.8864 19.8167C30.161 20.3139 30.2983 20.9602 30.2983 21.7556V28.9999H28.2244V27.5085H28.1392C28.0019 27.7831 27.7959 28.053 27.5213 28.3181C27.2467 28.5833 26.8939 28.8034 26.4631 28.9786C26.0322 29.1538 25.5161 29.2414 24.9148 29.2414ZM25.3764 27.5369C25.9635 27.5369 26.4654 27.4209 26.8821 27.1889C27.3035 26.9569 27.6231 26.6538 27.8409 26.2798C28.0634 25.901 28.1747 25.4962 28.1747 25.0653V23.659C28.099 23.7348 27.9522 23.8058 27.7344 23.8721C27.5213 23.9337 27.2775 23.9881 27.0028 24.0355C26.7282 24.0781 26.4607 24.1183 26.2003 24.1562C25.9399 24.1893 25.7221 24.2177 25.5469 24.2414C25.1349 24.2935 24.7585 24.3811 24.4176 24.5042C24.0814 24.6273 23.8116 24.8049 23.608 25.0369C23.4091 25.2641 23.3097 25.5672 23.3097 25.946C23.3097 26.4715 23.5038 26.8693 23.892 27.1391C24.2803 27.4043 24.7751 27.5369 25.3764 27.5369ZM33.1268 28.9999V18.0908H35.1793V19.8238H35.293C35.4918 19.2367 35.8422 18.775 36.3441 18.4389C36.8507 18.0979 37.4237 17.9275 38.0629 17.9275C38.1954 17.9275 38.3517 17.9322 38.5316 17.9417C38.7163 17.9512 38.8607 17.963 38.9648 17.9772V20.0085C38.8796 19.9848 38.7281 19.9587 38.5103 19.9303C38.2925 19.8972 38.0747 19.8806 37.8569 19.8806C37.355 19.8806 36.9076 19.9872 36.5146 20.2002C36.1263 20.4086 35.8185 20.6997 35.5913 21.0738C35.364 21.4431 35.2504 21.8645 35.2504 22.338V28.9999H33.1268ZM46.5394 18.0908V19.7954H40.5806V18.0908H46.5394ZM42.1786 15.4772H44.3022V25.7968C44.3022 26.2087 44.3638 26.5189 44.4869 26.7272C44.61 26.9308 44.7686 27.0705 44.9627 27.1462C45.1616 27.2173 45.377 27.2528 45.609 27.2528C45.7795 27.2528 45.9286 27.2409 46.0565 27.2173C46.1843 27.1936 46.2837 27.1747 46.3548 27.1605L46.7383 28.9147C46.6152 28.9621 46.44 29.0094 46.2127 29.0568C45.9854 29.1088 45.7013 29.1372 45.3604 29.142C44.8017 29.1515 44.2809 29.052 43.7979 28.8437C43.315 28.6354 42.9244 28.3134 42.6261 27.8778C42.3278 27.4422 42.1786 26.8953 42.1786 26.2372V15.4772Z" fill="white"/>
<path d="M92.3536 22.3536C92.5488 22.1583 92.5488 21.8417 92.3536 21.6464L89.1716 18.4645C88.9763 18.2692 88.6597 18.2692 88.4645 18.4645C88.2692 18.6597 88.2692 18.9763 88.4645 19.1716L91.2929 22L88.4645 24.8284C88.2692 25.0237 88.2692 25.3403 88.4645 25.5355C88.6597 25.7308 88.9763 25.7308 89.1716 25.5355L92.3536 22.3536ZM56 22.5H92V21.5H56V22.5Z" fill="white"/>
<path d="M73.0641 13.104C74.9622 10.3298 77.7107 8.24785 80.8952 7.17193C84.0798 6.09602 87.5278 6.08449 90.7195 7.1391C93.9111 8.1937 96.6735 10.2573 98.5901 13.0187C100.507 15.7802 101.474 19.0898 101.345 22.4487C101.217 25.8077 99.9998 29.0338 97.878 31.6409C95.7561 34.2479 92.8442 36.0945 89.5814 36.9023C86.3185 37.71 82.8814 37.4353 79.7883 36.1193C76.6953 34.8033 74.1138 32.5175 72.4331 29.6065" stroke="white"/>
</svg>

