<svg xmlns="http://www.w3.org/2000/svg" width="24" height="25" viewBox="0 0 24 25" fill="none">
  <mask id="mask0_7_77051" style="mask-type:luminance" maskUnits="userSpaceOnUse" x="0" y="0" width="24" height="25">
    <path fill-rule="evenodd" clip-rule="evenodd" d="M12 24.5C18.6274 24.5 24 19.1274 24 12.5C24 5.87258 18.6274 0.5 12 0.5C5.37258 0.5 0 5.87258 0 12.5C0 19.1274 5.37258 24.5 12 24.5Z" fill="white"/>
  </mask>
  <g mask="url(#mask0_7_77051)">
    <path fill-rule="evenodd" clip-rule="evenodd" d="M7.3392 10.5849L12 5.92432L16.6632 10.5874L19.3752 7.87541L12 0.5L4.62723 7.87295L7.3392 10.5849ZM2.71317 9.78711L5.42509 12.499L2.7129 15.2112L0.000976562 12.4993L2.71317 9.78711ZM12.0001 19.0769L7.33927 14.4163L4.62332 17.1247L4.62711 17.1285L12.0001 24.5014L19.3753 17.126L19.3766 17.1245L16.6631 14.4141L12.0001 19.0769ZM24.0003 12.502L21.2882 15.214L18.5763 12.5021L21.2884 9.79003L24.0003 12.502ZM14.7516 12.4983H14.7505L14.753 12.4996L14.7516 12.5011L11.9997 15.2529L9.25016 12.5034L9.24637 12.4996L9.25016 12.4956L9.7322 12.0136L9.96573 11.78H9.96592L11.9997 9.74609L14.7516 12.4983Z" fill="#F5BC00"/>
  </g>
</svg>